<svg height="200" width="900" xmlns="http://www.w3.org/2000/svg">
  <path d="M10 10 V190 H 90 V 180 H 20 V 10 Z" />
  <path d="M190 190 V180 H 120 V 100 H 190 V 110 H 120 V 20 H 190 V 10 H 110 V 190 Z" />
  <circle cx="138" cy="110" r="5" fill="#999999" />
  <circle cx="171" cy="110" r="5" fill="#999999" />
  <line x1="110" y1="35" x2="103" y2="35" stroke-width="2" stroke="#999" />
  <line x1="190" y1="105" x2="200" y2="45" stroke-width="2" stroke="#999" />
  <path d="M220 190 H 210 V 10 H 290 V 20 H 220 V 95 H 290 V 105 H 220 Z" />
  <path d="M345 190 H 355 V 20 H 390 V 10 H 310 V 20 H 345 Z" />
  <path d="M345 190 H 355 V 20 H 390 V 10 H 310 V 20 H 345 Z" />
  <path d="M410 10 V 150 A 40 40 0 0 0 490 150 V 10 H 480 V 150 A 30 30 0 0 1 420 150 V 10 Z" />
  <circle cx="450" cy="150" r="27.5" stroke="#999999" stroke-width="5" fill="transparent" />
  <line x1="450" y1="150" x2="450" y2="135" stroke-width="2" stroke="#999" />
  <line x1="450" y1="150" x2="465" y2="165" stroke-width="2" stroke="#999" />
  <path d="M510 190 H 520 V 20 L 580 190 H 590 V 10 H 580 V 155 L 530 10 H 510 Z" />
</svg>